<svg xmlns="http://www.w3.org/2000/svg" width="1840" height="620" viewBox="0 0 1840 620" font-family="Segoe UI, Helvetica, Arial, sans-serif">
<rect width="1840" height="620" fill="#0d1117" rx="12"/>
<defs><marker id="ar" viewBox="0 0 10 10" refX="9" refY="5"
             markerWidth="7" markerHeight="7" orient="auto-start-reverse">
             <path d="M 0 1 L 9 5 L 0 9 z" fill="#8b949e"/></marker></defs>
<text x="1810" y="40" text-anchor="end" font-size="19" font-weight="700" fill="#e6edf3">EDGE-RT</text>
<text x="1810" y="60" text-anchor="end" font-size="12.5" fill="#9198a1">real-time edge profile &#183; final/run_final.py --profile edge-rt</text>
<rect x="30" y="100" width="170" height="130" rx="10" fill="#161b22" stroke="#30363d" stroke-width="2"/>
<rect x="30" y="100" width="170" height="30" rx="10" fill="#388bfd"/>
<rect x="30" y="118" width="170" height="12" fill="#388bfd"/>
<text x="115.0" y="120" text-anchor="middle" font-size="13.5" font-weight="700" fill="#ffffff" letter-spacing="0.8">INPUT</text>
<text x="115.0" y="156" text-anchor="middle" font-size="16.5" font-weight="700" fill="#e6edf3">frame t</text>
<text x="115.0" y="180" text-anchor="middle" font-size="13.5" fill="#e6edf3" opacity="0.87">1280 &#215; 720 BGR</text>
<text x="115.0" y="200" text-anchor="middle" font-size="13.5" fill="#e6edf3" opacity="0.87">30 fps stream</text>
<rect x="270" y="80" width="260" height="170" rx="10" fill="#161b22" stroke="#30363d" stroke-width="2"/>
<rect x="270" y="80" width="260" height="30" rx="10" fill="#30363d"/>
<rect x="270" y="98" width="260" height="12" fill="#30363d"/>
<text x="400.0" y="100" text-anchor="middle" font-size="13.5" font-weight="700" fill="#ffffff" letter-spacing="0.8">STAGE 0 &#183; LITE STABILIZER</text>
<text x="400.0" y="136" text-anchor="middle" font-size="16.5" font-weight="700" fill="#e6edf3">stabilize (CPU)</text>
<text x="400.0" y="160" text-anchor="middle" font-size="13.5" fill="#e6edf3" opacity="0.87">phase-correlate a fixed</text>
<text x="400.0" y="180" text-anchor="middle" font-size="13.5" fill="#e6edf3" opacity="0.87">768&#215;448 central crop</text>
<text x="400.0" y="200" text-anchor="middle" font-size="13.5" fill="#e6edf3" opacity="0.87">against frame 0</text>
<text x="400.0" y="271" text-anchor="middle" font-size="12.5" fill="#9198a1">full-frame precision at 1/3 the cost &#183; 4.3 ms</text>
<rect x="600" y="70" width="330" height="190" rx="10" fill="#161b22" stroke="#30363d" stroke-width="2"/>
<rect x="600" y="70" width="330" height="30" rx="10" fill="#30363d"/>
<rect x="600" y="88" width="330" height="12" fill="#30363d"/>
<text x="765.0" y="90" text-anchor="middle" font-size="13.5" font-weight="700" fill="#ffffff" letter-spacing="0.8">STAGE 1 &#183; TEMPORAL STACK</text>
<rect x="634" y="126.0" width="52" height="52" rx="7" fill="none" stroke="#e3b341" stroke-width="3.5"/>
<rect x="650" y="134.8" width="52" height="52" rx="7" fill="none" stroke="#db61a2" stroke-width="3.5"/>
<rect x="666" y="143.6" width="52" height="52" rx="7" fill="none" stroke="#39c5cf" stroke-width="3.5"/>
<text x="815" y="140" text-anchor="middle" font-size="15.5" font-weight="700" fill="#e6edf3">three moments,</text>
<text x="815" y="162" text-anchor="middle" font-size="15.5" font-weight="700" fill="#e6edf3">one image</text>
<text x="742" y="205" font-size="14.5" font-weight="700" fill="#e3b341">t-12</text>
<text x="782" y="205" font-size="14.5" font-weight="700" fill="#db61a2">t-6</text>
<text x="815" y="205" font-size="14.5" font-weight="700" fill="#39c5cf">now</text>
<text x="857" y="205" font-size="13.5" fill="#e6edf3" opacity="0.85">= channels</text>
<text x="765.0" y="235" text-anchor="middle" font-size="13.5" fill="#e6edf3" opacity="0.87">stabilized grays from a 13-frame ring buffer</text>
<text x="765.0" y="281" text-anchor="middle" font-size="12.5" fill="#9198a1">static world cancels to gray &#8212; movers leave a colored trail</text>
<rect x="1000" y="70" width="400" height="190" rx="10" fill="#161b22" stroke="#2ea043" stroke-width="3"/>
<rect x="1000" y="70" width="400" height="30" rx="10" fill="#2ea043"/>
<rect x="1000" y="88" width="400" height="12" fill="#2ea043"/>
<text x="1200.0" y="90" text-anchor="middle" font-size="13.5" font-weight="700" fill="#ffffff" letter-spacing="0.8">STAGE 2 &#183; ONE NANO NETWORK</text>
<text x="1200.0" y="138" text-anchor="middle" font-size="16.5" font-weight="700" fill="#e6edf3">yolov8n-P2 @ 1280 &#8212; TensorRT FP16</text>
<text x="1200.0" y="168" text-anchor="middle" font-size="14" fill="#e6edf3" opacity="0.9">reads the whole stack, full frame</text>
<text x="1200.0" y="192" text-anchor="middle" font-size="14" fill="#e6edf3" opacity="0.9">no proposals &#183; no crops &#183; no expert</text>
<text x="1200.0" y="216" text-anchor="middle" font-size="14" fill="#e6edf3" opacity="0.9">&#8250; drone / bird, everywhere</text>
<text x="1200.0" y="281" text-anchor="middle" font-size="12.5" fill="#9198a1">one network &#8212; the entire neural budget</text>
<rect x="30" y="370" width="480" height="190" rx="10" fill="#161b22" stroke="#30363d" stroke-width="2"/>
<rect x="30" y="370" width="480" height="30" rx="10" fill="#30363d"/>
<rect x="30" y="388" width="480" height="12" fill="#30363d"/>
<text x="270.0" y="390" text-anchor="middle" font-size="13.5" font-weight="700" fill="#ffffff" letter-spacing="0.8">MEASURED &#183; RTX 4090, 10_06, 341 STEADY FRAMES</text>
<text x="58" y="436" font-size="13.5" fill="#e6edf3" opacity="0.9" font-weight="400">per frame, median</text>
<text x="482" y="436" text-anchor="end" font-size="13.5" font-weight="400" fill="#e6edf3">17.0 ms</text>
<text x="58" y="462" font-size="13.5" fill="#e6edf3" opacity="0.9" font-weight="400">per frame, p95</text>
<text x="482" y="462" text-anchor="end" font-size="13.5" font-weight="400" fill="#e6edf3">18.9 ms</text>
<text x="58" y="488" font-size="13.5" fill="#e6edf3" opacity="0.9" font-weight="400">AP, same pass</text>
<text x="482" y="488" text-anchor="end" font-size="13.5" font-weight="400" fill="#e6edf3">0.876</text>
<text x="58" y="514" font-size="13.5" fill="#e6edf3" opacity="0.9" font-weight="700">end-to-end</text>
<text x="482" y="514" text-anchor="end" font-size="13.5" font-weight="700" fill="#e6edf3">58.9 fps</text>
<text x="270.0" y="581" text-anchor="middle" font-size="12.5" fill="#9198a1">projected on Jetson Orin Nano: 10-15 fps @1280, 25-35 fps @640</text>
<rect x="640" y="400" width="280" height="140" rx="10" fill="#161b22" stroke="#2ea043" stroke-width="2"/>
<rect x="640" y="400" width="280" height="30" rx="10" fill="#2ea043"/>
<rect x="640" y="418" width="280" height="12" fill="#2ea043"/>
<text x="780.0" y="420" text-anchor="middle" font-size="13.5" font-weight="700" fill="#ffffff" letter-spacing="0.8">STAGE 3 &#183; TRACKING</text>
<text x="780.0" y="456" text-anchor="middle" font-size="13.5" fill="#e6edf3" opacity="0.87">Kalman tracker, camera-</text>
<text x="780.0" y="476" text-anchor="middle" font-size="13.5" fill="#e6edf3" opacity="0.87">compensated; coasting +</text>
<text x="780.0" y="496" text-anchor="middle" font-size="13.5" fill="#e6edf3" opacity="0.87">strict local re-acquisition</text>
<text x="780.0" y="561" text-anchor="middle" font-size="12.5" fill="#9198a1">same tracker as PC-MAX &#183; 0.1 ms</text>
<rect x="1000" y="400" width="300" height="140" rx="10" fill="#161b22" stroke="#2ea043" stroke-width="2"/>
<rect x="1000" y="400" width="300" height="30" rx="10" fill="#2ea043"/>
<rect x="1000" y="418" width="300" height="12" fill="#2ea043"/>
<text x="1150.0" y="420" text-anchor="middle" font-size="13.5" font-weight="700" fill="#ffffff" letter-spacing="0.8">STAGE 4 &#183; TRACK CLASSIFIER</text>
<text x="1150.0" y="456" text-anchor="middle" font-size="13.5" fill="#e6edf3" opacity="0.87">DRONE = 50%+ confirmed</text>
<text x="1150.0" y="476" text-anchor="middle" font-size="13.5" fill="#e6edf3" opacity="0.87">detections and 8+ of them</text>
<text x="1150.0" y="496" text-anchor="middle" font-size="13.5" fill="#e6edf3" opacity="0.87">&#8212; alarm ~0.3 s after track birth</text>
<text x="1150.0" y="561" text-anchor="middle" font-size="12.5" fill="#9198a1">per-frame ambiguity &#8250; track-level certainty</text>
<rect x="1480" y="360" width="330" height="190" rx="10" fill="#161b22" stroke="#388bfd" stroke-width="2.5"/>
<rect x="1480" y="360" width="330" height="30" rx="10" fill="#388bfd"/>
<rect x="1480" y="378" width="330" height="12" fill="#388bfd"/>
<text x="1645.0" y="380" text-anchor="middle" font-size="13.5" font-weight="700" fill="#ffffff" letter-spacing="0.8">OUTPUT</text>
<circle cx="1516" cy="429" r="8.5" fill="#f85149"/>
<text x="1536" y="434" font-size="15.5" font-weight="700" fill="#e6edf3">DRONE alarm</text>
<text x="1536" y="453" font-size="12.5" fill="#9198a1">track confirmed by the net, repeatedly</text>
<circle cx="1516" cy="481" r="8.5" fill="#6e7681"/>
<text x="1536" y="486" font-size="15.5" font-weight="700" fill="#e6edf3">discarded</text>
<text x="1536" y="505" font-size="12.5" fill="#9198a1">birds, foliage, unknown movers</text>
<path d="M 200 165 L 268 165" fill="none" stroke="#8b949e" stroke-width="2.4" marker-end="url(#ar)"/>
<text x="268" y="153" text-anchor="middle" font-size="12.5" fill="#9198a1">gray</text>
<path d="M 530 165 L 598 165" fill="none" stroke="#8b949e" stroke-width="2.4" marker-end="url(#ar)"/>
<text x="598" y="153" text-anchor="middle" font-size="12.5" fill="#9198a1">aligned</text>
<path d="M 930 165 L 998 165" fill="none" stroke="#8b949e" stroke-width="2.4" marker-end="url(#ar)"/>
<text x="998" y="153" text-anchor="middle" font-size="12.5" fill="#9198a1">1280&#215;720&#215;3</text>
<path d="M 1200 290 L 1200 345 L 780 345 L 780 398" fill="none" stroke="#8b949e" stroke-width="2.4" marker-end="url(#ar)"/>
<text x="780" y="335" text-anchor="middle" font-size="12.5" fill="#9198a1">detections, back in original coords</text>
<path d="M 920 470 L 998 470" fill="none" stroke="#8b949e" stroke-width="2.4" marker-end="url(#ar)"/>
<text x="998" y="456" text-anchor="middle" font-size="12.5" fill="#9198a1">tracks</text>
<path d="M 1300 470 L 1478 470" fill="none" stroke="#8b949e" stroke-width="2.4" marker-end="url(#ar)"/>
<text x="1478" y="456" text-anchor="middle" font-size="12.5" fill="#9198a1">drone tracks only</text>
<text x="920.0" y="604" text-anchor="middle" font-size="13" fill="#9198a1">10_06, a development video: per-frame AP 0.876 at 58.9 fps, RTX 4090, one pass &#183; no engine ships, so a fresh clone runs the .pt at 35.2 fps</text>
</svg>